<svg width="16" height="16" viewBox="0 0 16 16" fill="none" xmlns="http://www.w3.org/2000/svg">
<path fill-rule="evenodd" clip-rule="evenodd" d="M1.33331 7.99967C1.33331 4.31778 4.31808 1.33301 7.99998 1.33301C11.6819 1.33301 14.6666 4.31778 14.6666 7.99967C14.6666 11.6816 11.6819 14.6663 7.99998 14.6663C6.81504 14.6663 5.7023 14.3572 4.73802 13.8152L2.14176 14.4642C1.77557 14.5558 1.44388 14.2241 1.53543 13.8579L2.18449 11.2616C1.64246 10.2974 1.33331 9.18462 1.33331 7.99967ZM7.99998 5.49967C7.35565 5.49967 6.83331 6.02201 6.83331 6.66634H5.83331C5.83331 5.46972 6.80336 4.49967 7.99998 4.49967C9.1966 4.49967 10.1666 5.46972 10.1666 6.66634C10.1666 7.40946 9.79209 8.06496 9.22376 8.45449C9.01006 8.60096 8.81898 8.7549 8.6843 8.91702C8.55156 9.07682 8.49998 9.21206 8.49998 9.33301V9.99967H7.49998V9.33301C7.49998 8.90167 7.69118 8.54756 7.9151 8.27802C8.13709 8.01079 8.41656 7.7954 8.65841 7.62964C8.96634 7.41859 9.16665 7.06579 9.16665 6.66634C9.16665 6.02201 8.64431 5.49967 7.99998 5.49967ZM8.49998 11.4997C8.49998 11.7758 8.27612 11.9997 7.99998 11.9997C7.72384 11.9997 7.49998 11.7758 7.49998 11.4997C7.49998 11.2235 7.72384 10.9997 7.99998 10.9997C8.27612 10.9997 8.49998 11.2235 8.49998 11.4997Z" fill="black"/>
</svg>
